#!OML:ASF E:\Style4\Style4.ASF
:FULLY-SPECIFIED
:DEGREES
2803
root 0.151418 18.233 -0.898245 3.44377 -9.4206 2.03983
lowerback 5.35564 7.63695 1.92186
upperback 0.361924 10.2362 -2.27506
thorax -1.84179 5.09424 -4.03677
lowerneck 3.01298 -8.31977 -3.86022
upperneck -3.91855 -11.0951 5.0206
head -1.22254 -5.59101 2.40872
rclavicle -9.74231e-014 3.29983e-014
rhumerus 42.2323 14.8291 -68.4419
rradius 48.4514
rwrist -85.4471
rhand -24.3929 8.51179
rfingers 7.12502
rthumb 2.09788 -21.4576
lclavicle -9.74231e-014 3.29983e-014
lhumerus -61.4814 -40.9205 91.93
lradius 134.592
lwrist 57.529
lhand 12.2473 22.4085
lfingers 7.12502
lthumb 37.2545 48.4067
rfemur -8.51213 10.3489 15.3893
rtibia 16.675
rfoot -10.7157 -12.4118
rtoes -14.5221
lfemur -1.70614 -1.59523 -22.297
ltibia 10.0623
lfoot -14.4231 18.3937
ltoes -11.3398
2804
root 0.1639 18.2329 -0.903514 3.42122 -9.63806 2.1922
lowerback 5.38451 7.60777 1.74574
upperback 0.384521 10.1862 -2.28556
thorax -1.86685 5.06993 -3.95529
lowerneck 3.09305 -8.22642 -3.88772
upperneck -3.89656 -10.975 5.00626
head -1.23456 -5.53108 2.41234
rclavicle -2.18104e-014 1.59028e-014
rhumerus 42.2476 14.4134 -68.3751
rradius 48.3216
rwrist -85.3062
rhand -24.2102 8.63577
rfingers 7.12502
rthumb 2.27434 -21.3319
lclavicle -2.18104e-014 1.59028e-014
lhumerus -61.3863 -40.9309 91.9185
lradius 134.539
lwrist 57.6111
lhand 12.4186 22.4333
lfingers 7.12502
lthumb 37.4165 48.3889
rfemur -8.68003 10.3342 15.161
rtibia 16.8262
rfoot -10.7417 -12.2023
rtoes -14.9176
lfemur -1.66861 -1.47339 -22.5198
ltibia 9.99897
lfoot -14.4784 18.4166
ltoes -10.8942
2805
root 0.176492 18.2314 -0.909462 3.39975 -9.86305 2.31532
lowerback 5.41824 7.57656 1.62953
upperback 0.419795 10.1371 -2.30335
thorax -1.86953 5.04636 -3.91194
lowerneck 3.12459 -8.12499 -3.95844
upperneck -3.84523 -10.8435 5.04571
head -1.22406 -5.46557 2.43628
rclavicle 2.95506e-014 -1.54058e-014
rhumerus 42.3033 14.0298 -68.3122
rradius 48.1754
rwrist -85.0522
rhand -24.1091 8.8777
rfingers 7.12502
rthumb 2.37196 -21.0889
lclavicle 2.95506e-014 -1.54058e-014
lhumerus -61.2614 -40.9386 91.8621
lradius 134.482
lwrist 57.5883
lhand 12.4755 22.3817
lfingers 7.12502
lthumb 37.4704 48.3231
rfemur -8.84759 10.4288 14.9626
rtibia 16.9748
rfoot -10.7876 -12.0922
rtoes -14.8038
lfemur -1.62814 -1.34185 -22.7035
ltibia 9.90922
lfoot -14.4134 18.5388
ltoes -10.8769
2806
root 0.188803 18.2307 -0.914675 3.42974 -10.0628 2.34027
lowerback 5.41887 7.55118 1.61416
upperback 0.442443 10.1023 -2.30152
thorax -1.85205 5.02963 -3.89839
lowerneck 3.1176 -8.05454 -4.02903
upperneck -3.75017 -10.7536 5.07807
head -1.19133 -5.42033 2.45417
rclavicle 2.25434e-013 -2.74323e-014
rhumerus 42.3501 13.6802 -68.1183
rradius 48.0713
rwrist -84.7841
rhand -24.0609 9.24172
rfingers 7.12502
rthumb 2.41857 -20.7243
lclavicle 2.25434e-013 -2.74323e-014
lhumerus -61.114 -41.0092 91.784
lradius 134.416
lwrist 57.4785
lhand 12.6566 22.3481
lfingers 7.12502
lthumb 37.6414 48.244
rfemur -9.02521 10.4903 14.8726
rtibia 17.0975
rfoot -10.7652 -11.9965
rtoes -14.6128
lfemur -1.62287 -1.23126 -22.7835
ltibia 9.81042
lfoot -14.3046 18.6625
ltoes -11.1169
2807
root 0.200031 18.231 -0.918494 3.43088 -10.2656 2.34307
lowerback 5.45995 7.52429 1.58717
upperback 0.452651 10.0652 -2.28271
thorax -1.87501 5.01064 -3.86887
lowerneck 3.07791 -7.97112 -4.04593
upperneck -3.66086 -10.6449 5.04167
head -1.1623 -5.36468 2.43954
rclavicle -2.13271e-013 2.21645e-014
rhumerus 42.3414 13.3636 -67.8706
rradius 48.0401
rwrist -84.7196
rhand -24.1647 9.50857
rfingers 7.12502
rthumb 2.31833 -20.4586
lclavicle -2.13271e-013 2.21645e-014
lhumerus -61.0537 -41.1005 91.7884
lradius 134.431
lwrist 57.5301
lhand 12.5555 22.5537
lfingers 7.12502
lthumb 37.546 48.475
rfemur -9.14389 10.6309 14.8169
rtibia 17.194
rfoot -10.7803 -11.9304
rtoes -14.5832
lfemur -1.59005 -1.11449 -22.8322
ltibia 9.71942
lfoot -14.2875 18.7388
ltoes -11.0371
2808
root 0.210211 18.232 -0.921163 3.38919 -10.4534 2.37933
lowerback 5.51763 7.48536 1.52682
upperback 0.469371 10.0096 -2.27793
thorax -1.90486 4.9826 -3.83693
lowerneck 3.01419 -7.88429 -3.96358
upperneck -3.56086 -10.5288 4.93773
head -1.13472 -5.30502 2.38504
rclavicle 7.57742e-014 -1.78906e-015
rhumerus 42.3122 12.9564 -67.7011
rradius 48.0711
rwrist -84.8673
rhand -24.3247 9.30803
rfingers 7.12502
rthumb 2.16374 -20.6607
lclavicle 7.57742e-014 -1.78906e-015
lhumerus -61.0937 -41.1993 91.8587
lradius 134.547
lwrist 57.605
lhand 11.8187 22.7183
lfingers 7.12502
lthumb 36.8492 48.8216
rfemur -9.18043 10.7874 14.7359
rtibia 17.2207
rfoot -10.7583 -11.8971
rtoes -14.7478
lfemur -1.55854 -1.01289 -22.9154
ltibia 9.72251
lfoot -14.3144 18.7964
ltoes -11.0436
